<?xml version="1.0" encoding="UTF-8"?>
<svg xmlns="http://www.w3.org/2000/svg" viewBox="0 0 780 380" font-family="Inter, system-ui, -apple-system, sans-serif">
  <defs>
    <filter id="shadow" x="-2%" y="-2%" width="104%" height="108%">
      <feDropShadow dx="0" dy="1" stdDeviation="2" flood-color="#00000012"/>
    </filter>
  </defs>
  <rect width="780" height="380" rx="10" fill="#F8FAFC"/>
  <text x="390" y="30" text-anchor="middle" fill="#111827" font-size="15" font-weight="700">UART Register Map</text>

  <!-- Bit position header -->
  <g transform="translate(170, 42)">
    <text x="0" y="14" fill="#6B7280" font-size="9" font-weight="600">Bit</text>
    <text x="560" y="14" text-anchor="end" fill="#6B7280" font-size="9">Addr</text>
  </g>
  <g transform="translate(200, 42)" font-size="9" fill="#6B7280" text-anchor="middle" font-weight="600">
    <text x="18" y="14">7</text><text x="78" y="14">6</text><text x="138" y="14">5</text><text x="198" y="14">4</text>
    <text x="258" y="14">3</text><text x="318" y="14">2</text><text x="378" y="14">1</text><text x="438" y="14">0</text>
  </g>

  <!-- Register 0x0: TX_DATA -->
  <g transform="translate(30, 62)">
    <text x="0" y="26" fill="#1E3A8A" font-size="12" font-weight="700">TX_DATA</text>
    <text x="0" y="42" fill="#6B7280" font-size="9">[W] Write-only</text>
    <text x="700" y="28" fill="#4B5563" font-size="11" font-weight="600" text-anchor="end">0x0</text>
    <rect x="170" y="8" width="480" height="36" rx="6" fill="#DBEAFE" stroke="#93C5FD" stroke-width="1.5" filter="url(#shadow)"/>
    <text x="410" y="32" text-anchor="middle" fill="#1E40AF" font-size="12" font-weight="600">tx_data[7:0]</text>
  </g>

  <!-- Register 0x1: RX_DATA -->
  <g transform="translate(30, 130)">
    <text x="0" y="26" fill="#991B1B" font-size="12" font-weight="700">RX_DATA</text>
    <text x="0" y="42" fill="#6B7280" font-size="9">[R] Clears rx_ready</text>
    <text x="700" y="28" fill="#4B5563" font-size="11" font-weight="600" text-anchor="end">0x1</text>
    <rect x="170" y="8" width="480" height="36" rx="6" fill="#FEE2E2" stroke="#FCA5A5" stroke-width="1.5" filter="url(#shadow)"/>
    <text x="410" y="32" text-anchor="middle" fill="#991B1B" font-size="12" font-weight="600">rx_data[7:0]</text>
  </g>

  <!-- Register 0x2: STATUS -->
  <g transform="translate(30, 198)">
    <text x="0" y="26" fill="#065F46" font-size="12" font-weight="700">STATUS</text>
    <text x="0" y="42" fill="#6B7280" font-size="9">[R/W1C] Errors are W1C</text>
    <text x="700" y="28" fill="#4B5563" font-size="11" font-weight="600" text-anchor="end">0x2</text>

    <!-- Reserved bits 7-6 -->
    <rect x="170" y="8" width="60" height="36" rx="0" fill="#F3F4F6" stroke="#D1D5DB" stroke-width="1"/>
    <rect x="230" y="8" width="60" height="36" rx="0" fill="#F3F4F6" stroke="#D1D5DB" stroke-width="1"/>
    <text x="200" y="30" text-anchor="middle" fill="#9CA3AF" font-size="9">—</text>
    <text x="260" y="30" text-anchor="middle" fill="#9CA3AF" font-size="9">—</text>

    <!-- parity_err [5] -->
    <rect x="290" y="8" width="60" height="36" rx="0" fill="#FEF3C7" stroke="#F59E0B" stroke-width="1.5"/>
    <text x="320" y="24" text-anchor="middle" fill="#92400E" font-size="8" font-weight="600">parity</text>
    <text x="320" y="36" text-anchor="middle" fill="#92400E" font-size="8" font-weight="600">_err</text>

    <!-- frame_err [4] -->
    <rect x="350" y="8" width="60" height="36" rx="0" fill="#FEF3C7" stroke="#F59E0B" stroke-width="1.5"/>
    <text x="380" y="24" text-anchor="middle" fill="#92400E" font-size="8" font-weight="600">frame</text>
    <text x="380" y="36" text-anchor="middle" fill="#92400E" font-size="8" font-weight="600">_err</text>

    <!-- rx_ready [3] -->
    <rect x="410" y="8" width="60" height="36" rx="0" fill="#D1FAE5" stroke="#34D399" stroke-width="1.5"/>
    <text x="440" y="24" text-anchor="middle" fill="#065F46" font-size="8" font-weight="600">rx</text>
    <text x="440" y="36" text-anchor="middle" fill="#065F46" font-size="8" font-weight="600">_ready</text>

    <!-- fifo_full [2] -->
    <rect x="470" y="8" width="60" height="36" rx="0" fill="#EDE9FE" stroke="#8B5CF6" stroke-width="1.5"/>
    <text x="500" y="24" text-anchor="middle" fill="#5B21B6" font-size="8" font-weight="600">fifo</text>
    <text x="500" y="36" text-anchor="middle" fill="#5B21B6" font-size="8" font-weight="600">_full</text>

    <!-- fifo_empty [1] -->
    <rect x="530" y="8" width="60" height="36" rx="0" fill="#EDE9FE" stroke="#8B5CF6" stroke-width="1.5"/>
    <text x="560" y="24" text-anchor="middle" fill="#5B21B6" font-size="8" font-weight="600">fifo</text>
    <text x="560" y="36" text-anchor="middle" fill="#5B21B6" font-size="8" font-weight="600">_empty</text>

    <!-- tx_busy [0] -->
    <rect x="590" y="8" width="60" height="36" rx="0" fill="#DBEAFE" stroke="#60A5FA" stroke-width="1.5"/>
    <text x="620" y="24" text-anchor="middle" fill="#1E40AF" font-size="8" font-weight="600">tx</text>
    <text x="620" y="36" text-anchor="middle" fill="#1E40AF" font-size="8" font-weight="600">_busy</text>

    <!-- Rounded corners on ends -->
    <rect x="170" y="8" width="480" height="36" rx="6" fill="none" stroke="#6B7280" stroke-width="0.5"/>
  </g>

  <!-- Register 0x3: CTRL -->
  <g transform="translate(30, 278)">
    <text x="0" y="26" fill="#4338CA" font-size="12" font-weight="700">CTRL</text>
    <text x="0" y="42" fill="#6B7280" font-size="9">[RW] Read-Write</text>
    <text x="700" y="28" fill="#4B5563" font-size="11" font-weight="600" text-anchor="end">0x3</text>

    <!-- Reserved bits 7-3 -->
    <rect x="170" y="8" width="300" height="36" rx="0" fill="#F3F4F6" stroke="#D1D5DB" stroke-width="1"/>
    <text x="320" y="30" text-anchor="middle" fill="#9CA3AF" font-size="10">— reserved —</text>

    <!-- irq_en [2] -->
    <rect x="470" y="8" width="60" height="36" rx="0" fill="#FCE7F3" stroke="#EC4899" stroke-width="1.5"/>
    <text x="500" y="24" text-anchor="middle" fill="#9D174D" font-size="8" font-weight="600">irq</text>
    <text x="500" y="36" text-anchor="middle" fill="#9D174D" font-size="8" font-weight="600">_en</text>

    <!-- parity_odd [1] -->
    <rect x="530" y="8" width="60" height="36" rx="0" fill="#FEF3C7" stroke="#F59E0B" stroke-width="1.5"/>
    <text x="560" y="24" text-anchor="middle" fill="#92400E" font-size="8" font-weight="600">parity</text>
    <text x="560" y="36" text-anchor="middle" fill="#92400E" font-size="8" font-weight="600">_odd</text>

    <!-- parity_en [0] -->
    <rect x="590" y="8" width="60" height="36" rx="0" fill="#FEF3C7" stroke="#F59E0B" stroke-width="1.5"/>
    <text x="620" y="24" text-anchor="middle" fill="#92400E" font-size="8" font-weight="600">parity</text>
    <text x="620" y="36" text-anchor="middle" fill="#92400E" font-size="8" font-weight="600">_en</text>

    <rect x="170" y="8" width="480" height="36" rx="6" fill="none" stroke="#6B7280" stroke-width="0.5"/>
  </g>

  <!-- W1C legend -->
  <g transform="translate(30, 340)">
    <rect x="0" y="0" width="14" height="14" rx="3" fill="#FEF3C7" stroke="#F59E0B" stroke-width="1"/>
    <text x="22" y="12" fill="#6B7280" font-size="9">W1C (write-1-to-clear)</text>
    <rect x="180" y="0" width="14" height="14" rx="3" fill="#D1FAE5" stroke="#34D399" stroke-width="1"/>
    <text x="202" y="12" fill="#6B7280" font-size="9">Status flag</text>
    <rect x="310" y="0" width="14" height="14" rx="3" fill="#F3F4F6" stroke="#D1D5DB" stroke-width="1"/>
    <text x="332" y="12" fill="#6B7280" font-size="9">Reserved</text>
    <rect x="410" y="0" width="14" height="14" rx="3" fill="#EDE9FE" stroke="#8B5CF6" stroke-width="1"/>
    <text x="432" y="12" fill="#6B7280" font-size="9">FIFO status</text>
  </g>

</svg>